<svg xmlns="http://www.w3.org/2000/svg" width="32" height="49" viewBox="0 0 32 49">
<g>
<path d="M 12.45 29.09 C11.26,31.00 7.39,29.72 4.75,26.54 C2.28,23.57 2.00,22.44 2.00,15.66 C2.00,8.42 2.14,7.97 5.25,5.06 C8.35,2.15 8.90,2.01 17.06,2.00 C25.19,2.00 25.77,2.15 28.38,4.88 C30.60,7.19 31.07,8.51 30.82,11.63 C30.52,15.31 30.31,15.52 26.79,15.81 C22.78,16.14 18.58,14.49 19.53,12.95 C19.85,12.43 19.64,12.00 19.06,12.00 C18.48,12.00 18.06,11.66 18.13,11.25 C18.41,9.70 16.72,4.00 15.98,4.00 C15.31,4.00 14.22,6.88 13.43,10.75 C13.29,11.44 13.70,12.01 14.34,12.02 C14.98,12.03 14.38,12.92 13.00,14.00 C10.70,15.80 10.66,15.96 12.50,16.01 C14.42,16.06 14.41,16.14 12.25,17.94 C9.46,20.27 9.43,21.16 12.10,22.83 C14.12,24.09 14.13,24.19 12.35,25.63 C11.01,26.71 10.85,27.27 11.76,27.65 C12.45,27.94 12.76,28.58 12.45,29.09 ZM 32.00 25.37 L 32.00 40.63 L 29.25 43.20 C27.74,44.62 25.46,46.09 24.18,46.48 C21.05,47.42 18.00,44.58 18.00,40.72 C18.00,37.95 18.21,37.79 21.00,38.35 C23.90,38.93 25.09,37.79 22.96,36.47 C22.39,36.12 22.10,34.05 22.31,31.87 C22.63,28.72 22.29,27.61 20.63,26.45 C18.61,25.04 18.61,25.00 20.53,24.97 C22.48,24.94 22.48,24.92 20.56,23.47 C18.66,22.03 18.67,22.00 20.81,22.00 C22.01,22.00 23.00,21.55 23.00,21.00 C23.00,19.09 26.41,20.02 29.20,22.69 L 32.00 25.37 ZM 12.46 45.26 C11.06,46.77 9.60,47.94 9.21,47.86 C8.82,47.78 7.04,46.24 5.25,44.44 C2.99,42.17 2.00,40.23 2.00,38.09 C2.00,35.14 2.18,35.00 6.12,35.00 C9.77,35.00 10.09,35.18 8.93,36.58 C7.76,37.99 8.02,38.09 11.31,37.47 C14.87,36.80 15.00,36.88 15.00,39.65 C15.00,41.34 13.95,43.65 12.46,45.26 Z" fill="rgb(134,26,28)"/>
<path d="M 0.00 3.50 C0.00,5.43 0.14,7.00 0.30,7.00 C0.47,7.00 2.13,5.43 4.00,3.50 L 7.39 0.00 L 25.63 0.00 L 28.50 3.00 C30.08,4.65 31.51,6.00 31.69,6.00 C31.86,6.00 32.00,4.65 32.00,3.00 C32.00,0.29 31.69,0.00 28.81,0.00 L 32.00 0.00 L 32.00 16.81 L 27.25 17.23 C24.64,17.46 21.71,18.00 20.75,18.43 C19.66,18.92 19.00,18.79 19.00,18.11 C19.00,17.50 19.67,17.00 20.50,17.00 C22.13,17.00 22.38,15.90 21.30,15.08 C22.73,15.64 24.79,15.97 26.79,15.81 C30.31,15.52 30.52,15.31 30.82,11.63 C31.07,8.51 30.60,7.19 28.38,4.88 C25.77,2.15 25.19,2.00 17.06,2.00 C8.90,2.01 8.35,2.15 5.25,5.06 C2.14,7.97 2.00,8.42 2.00,15.66 C2.00,22.44 2.28,23.57 4.75,26.54 C6.61,28.78 9.08,30.08 10.80,29.98 C10.27,30.32 10.40,30.63 11.14,31.08 C11.85,31.53 12.19,32.14 11.88,32.45 C11.08,33.25 5.64,30.37 3.51,28.01 C0.90,25.13 0.00,25.51 0.00,29.50 L 0.00 0.00 L 3.70 0.00 C0.14,0.00 0.00,0.13 0.00,3.50 ZM 12.46 45.26 L 9.92 48.00 L 17.71 47.88 C21.99,47.82 24.60,47.55 23.50,47.28 C22.47,47.03 21.55,46.60 20.77,46.04 C21.78,46.64 22.97,46.84 24.18,46.48 C25.46,46.09 27.74,44.62 29.25,43.20 L 32.00 40.63 L 32.00 42.63 L 29.00 45.50 C27.35,47.08 26.00,48.51 26.00,48.69 C26.00,48.86 27.35,49.00 29.00,49.00 C31.71,49.00 32.00,48.69 32.00,45.81 L 32.00 49.00 L 7.37 49.00 L 4.50 46.00 C2.92,44.35 1.26,43.00 0.81,43.00 C0.37,43.00 0.00,44.35 0.00,46.00 C0.00,48.79 0.26,49.00 3.69,49.00 L 0.00 49.00 L 0.00 33.00 L 5.00 33.00 C10.15,33.00 11.34,34.23 8.75,36.88 C8.63,37.00 8.54,37.10 8.46,37.20 C8.57,37.03 8.73,36.82 8.93,36.58 C10.09,35.18 9.77,35.00 6.12,35.00 C2.18,35.00 2.00,35.14 2.00,38.09 C2.00,40.23 2.99,42.17 5.25,44.44 C7.04,46.24 8.82,47.78 9.21,47.86 C9.60,47.94 11.06,46.77 12.46,45.26 ZM 12.45 29.09 C12.60,28.83 12.60,28.54 12.48,28.28 C13.04,28.73 12.99,28.98 12.28,29.32 C12.34,29.25 12.40,29.17 12.45,29.09 ZM 8.33 37.71 C8.57,37.89 9.47,37.79 11.25,37.47 C13.01,37.14 13.94,36.99 14.44,37.24 C13.95,37.00 13.03,37.15 11.31,37.47 C9.40,37.83 8.51,37.95 8.33,37.71 ZM 20.14 14.47 C19.48,14.11 19.20,13.49 19.50,13.01 C19.84,12.45 19.64,12.00 19.06,12.00 C19.64,12.00 19.85,12.43 19.53,12.95 C19.21,13.47 19.48,14.01 20.14,14.47 ZM 13.64 24.10 C13.57,23.80 13.18,23.51 12.45,23.05 C13.18,23.52 13.57,23.81 13.64,24.10 ZM 15.00 39.65 C15.00,38.64 14.98,37.99 14.79,37.60 C14.98,37.99 15.00,38.64 15.00,39.65 Z" fill="rgb(149,86,84)"/>
<path d="M 17.89 8.80 C17.78,8.55 17.66,8.30 17.53,8.06 L 16.24 5.64 L 14.59 8.82 C13.81,10.33 13.49,11.20 13.60,11.64 C13.43,11.41 13.36,11.10 13.43,10.75 C14.22,6.88 15.31,4.00 15.98,4.00 C16.48,4.00 17.42,6.62 17.89,8.80 ZM 18.36 11.78 C18.52,11.92 18.77,12.00 19.06,12.00 C19.64,12.00 19.84,12.45 19.50,13.01 C19.84,12.45 19.61,12.00 19.00,12.00 C18.70,12.00 18.47,11.92 18.36,11.78 Z" fill="rgb(238,185,184)"/>
<path d="M 0.00 46.00 C0.00,44.35 0.37,43.00 0.81,43.00 C1.26,43.00 2.92,44.35 4.50,46.00 L 7.37 49.00 L 3.69 49.00 C0.26,49.00 0.00,48.79 0.00,46.00 ZM 26.00 48.69 C26.00,48.51 27.35,47.08 29.00,45.50 L 32.00 42.63 L 32.00 45.81 C32.00,48.69 31.71,49.00 29.00,49.00 C27.35,49.00 26.00,48.86 26.00,48.69 ZM 12.46 45.26 C13.95,43.65 15.00,41.34 15.00,39.65 C15.00,36.87 14.87,36.80 11.25,37.47 C8.21,38.02 7.74,37.91 8.75,36.88 C11.34,34.23 10.15,33.00 5.00,33.00 L 0.00 33.00 L 0.00 29.50 C0.00,25.51 0.90,25.13 3.51,28.01 C5.64,30.37 11.08,33.25 11.88,32.45 C12.19,32.14 11.85,31.53 11.14,31.08 C10.13,30.47 10.25,30.12 11.64,29.59 C13.18,28.99 13.23,28.75 11.97,27.93 C10.71,27.10 10.76,26.76 12.35,25.55 C14.13,24.19 14.12,24.09 12.10,22.83 C9.43,21.16 9.46,20.27 12.25,17.94 C14.41,16.14 14.42,16.06 12.50,16.01 C10.66,15.96 10.70,15.80 13.00,14.00 C14.38,12.92 14.93,12.03 14.22,12.02 C13.27,12.01 13.36,11.21 14.59,8.82 L 16.24 5.64 L 17.53 8.06 C18.24,9.39 18.61,10.82 18.35,11.24 C18.09,11.66 18.39,12.00 19.00,12.00 C19.61,12.00 19.84,12.45 19.50,13.01 C19.15,13.56 19.58,14.28 20.44,14.61 C22.43,15.38 22.47,17.00 20.50,17.00 C19.67,17.00 19.00,17.50 19.00,18.11 C19.00,18.79 19.66,18.92 20.75,18.43 C21.71,18.00 24.64,17.46 27.25,17.23 L 32.00 16.81 L 32.00 21.09 L 32.00 25.37 L 29.20 22.69 C26.41,20.02 23.00,19.09 23.00,21.00 C23.00,21.55 22.01,22.00 20.81,22.00 C18.67,22.00 18.66,22.03 20.56,23.47 C22.48,24.92 22.48,24.94 20.53,24.97 C18.61,25.00 18.61,25.04 20.63,26.45 C22.29,27.61 22.63,28.72 22.31,31.87 C22.10,34.05 22.39,36.12 22.96,36.47 C25.09,37.79 23.90,38.93 21.00,38.35 C18.21,37.79 18.00,37.95 18.00,40.72 C18.00,43.86 20.19,46.47 23.50,47.28 C24.60,47.55 21.99,47.82 17.71,47.88 L 9.92 48.00 L 12.46 45.26 ZM 0.00 3.50 C0.00,0.13 0.14,0.00 3.70,0.00 L 7.39 0.00 L 4.00 3.50 C2.13,5.43 0.47,7.00 0.30,7.00 C0.14,7.00 0.00,5.43 0.00,3.50 ZM 28.50 3.00 L 25.63 0.00 L 28.81 0.00 C31.69,0.00 32.00,0.29 32.00,3.00 C32.00,4.65 31.86,6.00 31.69,6.00 C31.51,6.00 30.08,4.65 28.50,3.00 Z" fill="rgb(252,244,242)"/>
</g>
</svg>